<svg xmlns="http://www.w3.org/2000/svg" width="423" height="32" viewBox="0 0 423 32" fill="none">
<path d="M-0.00390625 29.4766H3.33594L3.35547 2.64062H0.015625V1.11719H12.6914C16.7279 1.11719 19.6836 1.94401 21.5586 3.59766C23.4466 5.2513 24.3906 7.60807 24.3906 10.668C24.3906 13.7279 23.4076 16.2148 21.4414 18.1289C19.4883 20.0299 16.5977 20.9805 12.7695 20.9805H8.60938V29.4766H13.5508V31H-0.00390625V29.4766ZM12.2812 19.6328C15.3932 19.6328 17.4245 17.9401 18.375 14.5547C18.7266 13.3438 18.9023 12.0938 18.9023 10.8047C18.9023 8.22656 18.388 6.26042 17.3594 4.90625C16.2526 3.39583 14.5729 2.64062 12.3203 2.64062H8.60938V19.6328H12.2812ZM34.3906 29.4766H38.2578L38.2773 19.4766L28.2773 2.64062H25.8359V1.11719H38.4141V2.64062H34.4492L42.4375 16.6836L50.3672 2.64062H46.7734V1.11719H55.4062V2.64062H52.457L43.5312 18.2656V29.4766H47.418V31H34.3906V29.4766ZM64.1758 29.4766H68.0625L68.082 2.62109H64.4492C62.3008 2.76432 60.8034 3.55859 59.957 5.00391C59.306 6.11068 58.9219 7.94661 58.8047 10.5117H57.2812V1.11719H84.1172V10.5117H82.5938C82.4766 7.97266 82.0859 6.13672 81.4219 5.00391C80.5755 3.55859 79.0846 2.76432 76.9492 2.62109H73.3359V29.4766H77.2422V31H64.1758V29.4766ZM86.793 29.4766H89.8398L89.8594 2.64062H86.793V1.11719H98.4141V2.64062H95.1133V15.2578H109.645L109.664 2.64062H106.363V1.11719H117.984V2.64062H114.918V29.4766H117.965V31H106.363V29.4766H109.645V16.7812H95.1133V29.4766H98.3945V31H86.793V29.4766ZM120.934 29.4766H124.781L124.801 2.64062H120.934V1.11719H133.902V2.64062H130.055V29.4766H133.902V31H120.934V29.4766ZM136.168 29.4766H138.277L149.293 1.11719H151.559L163.336 29.4766H165.328V31H154.684V29.4766H157.613L154.801 22.6602H142.945L140.367 29.4766H143.883V31H136.168V29.4766ZM154.176 21.1367L148.629 7.64062L143.531 21.1367H154.176Z" fill="#E67B26"/>
<path d="M180.035 29.4766H183.375L183.395 2.64062H180.055V1.11719H192.73C196.767 1.11719 199.723 1.94401 201.598 3.59766C203.486 5.2513 204.43 7.60807 204.43 10.668C204.43 13.7279 203.447 16.2148 201.48 18.1289C199.527 20.0299 196.637 20.9805 192.809 20.9805H188.648V29.4766H193.59V31H180.035V29.4766ZM192.32 19.6328C195.432 19.6328 197.464 17.9401 198.414 14.5547C198.766 13.3438 198.941 12.0938 198.941 10.8047C198.941 8.22656 198.427 6.26042 197.398 4.90625C196.292 3.39583 194.612 2.64062 192.359 2.64062H188.648V19.6328H192.32ZM207.066 29.457L211.246 29.4766L211.266 2.62109H207.984V1.11719H219.996V2.62109H216.52V29.4766H222.496C225.921 29.4766 227.997 27.8945 228.727 24.7305C228.935 23.819 229.072 22.8815 229.137 21.918H230.66V31H207.066V29.457ZM235.973 2.64062H233.297V1.11719H244.078V2.64062H241.227V20.7461C241.227 25.4727 242.555 28.2721 245.211 29.1445C246.096 29.431 246.956 29.5742 247.789 29.5742C248.635 29.5742 249.365 29.5352 249.977 29.457C250.602 29.3789 251.22 29.2292 251.832 29.0078C253.199 28.487 254.319 27.5495 255.191 26.1953C256.077 24.8411 256.52 22.9076 256.52 20.3945V2.64062H253.473V1.11719H261.285V2.64062H258.434V20.668C258.434 24.2747 257.496 26.9635 255.621 28.7344C253.746 30.5052 251.201 31.3906 247.984 31.3906C241.93 31.3906 238.128 29.099 236.578 24.5156C236.161 23.2917 235.953 21.8138 235.953 20.082L235.973 2.64062ZM268.473 28.7344C267.939 29.3333 267.672 30.0885 267.672 31H265.934V23.0312H267.945C268.453 25.0365 269.508 26.6641 271.109 27.9141C272.724 29.151 274.671 29.7695 276.949 29.7695C279.801 29.7695 281.708 28.9818 282.672 27.4062C282.984 26.8724 283.141 26.2734 283.141 25.6094C283.141 24.1901 282.639 22.9727 281.637 21.957C280.634 20.9414 278.915 19.9909 276.48 19.1055C274.059 18.207 272.223 17.3867 270.973 16.6445C269.736 15.9023 268.759 15.1211 268.043 14.3008C266.78 12.8555 266.148 10.9609 266.148 8.61719C266.148 6.27344 267.151 4.3724 269.156 2.91406C271.174 1.45573 273.622 0.726562 276.5 0.726562C278.128 0.726562 279.508 0.915365 280.641 1.29297C281.786 1.67057 282.659 2.11328 283.258 2.62109C283.57 2.16536 283.74 1.66406 283.766 1.11719H285.582V8.38281H283.707C283.512 6.45573 282.704 4.97135 281.285 3.92969C279.879 2.875 278.245 2.34766 276.383 2.34766C274.534 2.34766 273.023 2.73177 271.852 3.5C270.68 4.25521 270.094 5.29036 270.094 6.60547C270.094 7.92057 270.641 9.07292 271.734 10.0625C272.828 11.0521 275.061 12.2891 278.434 13.7734C281.598 15.0625 283.805 16.3711 285.055 17.6992C286.305 19.0143 286.93 20.6419 286.93 22.582C286.93 25.3164 285.966 27.4714 284.039 29.0469C282.125 30.6094 279.801 31.3906 277.066 31.3906C274.345 31.3906 271.975 30.8438 269.957 29.75C269.358 29.4245 268.863 29.0859 268.473 28.7344ZM303.863 29.457L308.043 29.4766L308.062 2.62109H304.781V1.11719H316.793V2.62109H313.316V29.4766H319.293C322.717 29.4766 324.794 27.8945 325.523 24.7305C325.732 23.819 325.868 22.8815 325.934 21.918H327.457V31H303.863V29.457ZM337.652 29.4766H341.539L341.559 2.62109H337.926C335.777 2.76432 334.28 3.55859 333.434 5.00391C332.783 6.11068 332.398 7.94661 332.281 10.5117H330.758V1.11719H357.594V10.5117H356.07C355.953 7.97266 355.562 6.13672 354.898 5.00391C354.052 3.55859 352.561 2.76432 350.426 2.62109H346.812V29.4766H350.719V31H337.652V29.4766ZM360.816 29.4766H364.723L364.742 2.64062H360.816V1.11719H373.98C381.832 1.11719 386.91 3.59766 389.215 8.55859C390.165 10.6029 390.641 13.0247 390.641 15.8242C390.641 19.5482 389.56 22.7969 387.398 25.5703C385.654 27.7969 383.121 29.3659 379.801 30.2773C378.056 30.7591 376.025 31 373.707 31H360.816V29.4766ZM373.473 29.4766C377.574 29.4766 380.51 28.4544 382.281 26.4102C384.052 24.3659 384.938 20.8828 384.938 15.9609V15.3555C384.859 10.6419 383.909 7.34766 382.086 5.47266C380.276 3.58464 377.49 2.64062 373.727 2.64062H369.996V29.4766H373.473ZM392.965 29.4766H395.074L406.09 1.11719H408.355L420.133 29.4766H422.125V31H411.48V29.4766H414.41L411.598 22.6602H399.742L397.164 29.4766H400.68V31H392.965V29.4766ZM410.973 21.1367L405.426 7.64062L400.328 21.1367H410.973Z" fill="white"/>
</svg>